<?xml version="1.0" encoding="UTF-8" standalone="no"?>
<svg
   viewBox="0 0 512 512"
   version="1.1"
   id="svg1"
   sodipodi:docname="rotate-right-solid-hell-gray.svg"
   inkscape:version="1.4 (86a8ad7, 2024-10-11)"
   xmlns:inkscape="http://www.inkscape.org/namespaces/inkscape"
   xmlns:sodipodi="http://sodipodi.sourceforge.net/DTD/sodipodi-0.dtd"
   xmlns="http://www.w3.org/2000/svg"
   xmlns:svg="http://www.w3.org/2000/svg">
  <defs
     id="defs1" />
  <sodipodi:namedview
     id="namedview1"
     pagecolor="#ffffff"
     bordercolor="#000000"
     borderopacity="0.25"
     inkscape:showpageshadow="2"
     inkscape:pageopacity="0.0"
     inkscape:pagecheckerboard="0"
     inkscape:deskcolor="#d1d1d1"
     inkscape:zoom="1.5761719"
     inkscape:cx="255.68277"
     inkscape:cy="256"
     inkscape:window-width="1920"
     inkscape:window-height="1009"
     inkscape:window-x="-8"
     inkscape:window-y="-8"
     inkscape:window-maximized="1"
     inkscape:current-layer="svg1" />
  <!--!Font Awesome Free 6.6.0 by @fontawesome - https://fontawesome.com License - https://fontawesome.com/license/free Copyright 2024 Fonticons, Inc.-->
  <path
     d="m 463.5,224 h 8.5 c 13.3,0 24,-10.7 24,-24 V 72 c 0,-9.7 -5.8,-18.5 -14.8,-22.2 -9,-3.7 -19.3,-1.7 -26.2,5.2 l -41.6,41.6 c -87.6,-86.5 -228.7,-86.2 -315.8,1 -87.5,87.5 -87.5,229.3 0,316.8 87.5,87.5 229.3,87.5 316.8,0 12.5,-12.5 12.5,-32.8 0,-45.3 -12.5,-12.5 -32.8,-12.5 -45.3,0 -62.5,62.5 -163.8,62.5 -226.3,0 -62.5,-62.5 -62.5,-163.8 0,-226.3 62.2,-62.2 162.7,-62.5 225.3,-1 L 327,183 c -6.9,6.9 -8.9,17.2 -5.2,26.2 3.7,9 12.5,14.8 22.2,14.8 z"
     id="path1"
     style="fill:#666666;fill-opacity:0.69999999"
     sodipodi:nodetypes="csssssccssssssccssc" />
</svg>
